<?xml version="1.0" encoding="utf-8"?>
<!-- Generator: Adobe Illustrator 18.1.1, SVG Export Plug-In . SVG Version: 6.00 Build 0)  -->
<!DOCTYPE svg PUBLIC "-//W3C//DTD SVG 1.1//EN" "http://www.w3.org/Graphics/SVG/1.1/DTD/svg11.dtd">
<svg version="1.1" id="Layer_1" xmlns="http://www.w3.org/2000/svg" xmlns:xlink="http://www.w3.org/1999/xlink" x="0px" y="0px"
	 viewBox="0 0 15.5 18" enable-background="new 0 0 15.5 18" xml:space="preserve">
<g>
	<path fill="#3AAD2A" d="M15.5,5.5V17c0,0.5-0.4,1-1,1H1c-0.5,0-1-0.4-1-1V1c0-0.5,0.4-1,1-1h9c0.5,0,1.3,0.3,1.6,0.7l3.1,3.1
		C15.2,4.2,15.5,4.9,15.5,5.5z M14.2,6.4H10c-0.5,0-1-0.4-1-1V1.3H1.3v15.4h12.9V6.4z M10.3,5.1h3.8C14,5,14,4.8,13.9,4.7l-3.1-3.1
		c-0.1-0.1-0.2-0.2-0.4-0.2V5.1z"/>
</g>
</svg>
