<?xml version="1.0" encoding="utf-8"?>
<!-- Generator: Adobe Illustrator 18.1.1, SVG Export Plug-In . SVG Version: 6.00 Build 0)  -->
<!DOCTYPE svg PUBLIC "-//W3C//DTD SVG 1.1//EN" "http://www.w3.org/Graphics/SVG/1.1/DTD/svg11.dtd">
<svg version="1.1" id="Layer_1" xmlns="http://www.w3.org/2000/svg" xmlns:xlink="http://www.w3.org/1999/xlink" x="0px" y="0px"
	 viewBox="0 0 20.6 18" enable-background="new 0 0 20.6 18" xml:space="preserve">
<g>
	<path fill="#3AAD2A" d="M20.6,14.1c0,1.1-0.9,1.9-1.9,1.9H1.9c-1.1,0-1.9-0.9-1.9-1.9V3.2h2.6V1.9h18V14.1z M2.6,4.5H1.3v9.6
		c0,0.4,0.3,0.6,0.6,0.6s0.6-0.3,0.6-0.6V4.5z M19.3,3.2H3.9v10.9c0,0.2,0,0.4-0.1,0.6h14.9c0.4,0,0.6-0.3,0.6-0.6V3.2z M11.6,10.9
		H5.1V4.5h6.4V10.9z M11.6,13.5H5.1v-1.3h6.4V13.5z M6.4,5.8v3.9h3.9V5.8H6.4z M18,5.8h-5.1V4.5H18V5.8z M18,8.4h-5.1V7.1H18V8.4z
		 M18,10.9h-5.1V9.6H18V10.9z M18,13.5h-5.1v-1.3H18V13.5z"/>
</g>
</svg>
