<?xml version="1.0" encoding="utf-8"?>
<!-- Generator: Adobe Illustrator 18.1.1, SVG Export Plug-In . SVG Version: 6.00 Build 0)  -->
<!DOCTYPE svg PUBLIC "-//W3C//DTD SVG 1.1//EN" "http://www.w3.org/Graphics/SVG/1.1/DTD/svg11.dtd">
<svg version="1.1" id="Layer_1" xmlns="http://www.w3.org/2000/svg" xmlns:xlink="http://www.w3.org/1999/xlink" x="0px" y="0px"
	 viewBox="0 0 11.6 18" enable-background="new 0 0 11.6 18" xml:space="preserve">
<g>
	<path fill="#3AAD2A" d="M11.6,9c0,3-2.2,5.4-5.1,5.7v1.3H9c0.4,0,0.6,0.3,0.6,0.6S9.3,17.4,9,17.4H2.6c-0.4,0-0.6-0.3-0.6-0.6
		s0.3-0.6,0.6-0.6h2.6v-1.3C2.2,14.4,0,12,0,9V7.7c0-0.4,0.3-0.6,0.6-0.6s0.6,0.3,0.6,0.6V9c0,2.5,2,4.5,4.5,4.5s4.5-2,4.5-4.5V7.7
		c0-0.4,0.3-0.6,0.6-0.6s0.6,0.3,0.6,0.6V9z M9,9c0,1.8-1.4,3.2-3.2,3.2S2.6,10.8,2.6,9V3.9c0-1.8,1.4-3.2,3.2-3.2S9,2.1,9,3.9V9z"
		/>
</g>
</svg>
