<?xml version="1.0" encoding="utf-8"?>
<!-- Generator: Adobe Illustrator 18.1.0, SVG Export Plug-In . SVG Version: 6.00 Build 0)  -->
<!DOCTYPE svg PUBLIC "-//W3C//DTD SVG 1.1//EN" "http://www.w3.org/Graphics/SVG/1.1/DTD/svg11.dtd">
<svg version="1.1" id="Layer_1" xmlns="http://www.w3.org/2000/svg" xmlns:xlink="http://www.w3.org/1999/xlink" x="0px" y="0px"
	 viewBox="0 0 70 51" enable-background="new 0 0 70 51" xml:space="preserve">
<g>
	<path fill="#262626" d="M12.3,43.2c-0.2-1.2-1.3-1.6-2.4-1.7c-3.7-0.4-4.4,2.4-4.4,3.6c0,2,0.6,3.6,4.2,3.6c0.7,0,2.5-0.7,2.5-1.8
		h5.3c-0.2,3.3-5.8,4.1-8.2,4.1c-5.1,0-9.4-0.9-9.2-5.9c0.2-3.6,3.5-6,10.2-5.9c3.7,0.1,7.3,1.2,7.3,3.9L12.3,43.2L12.3,43.2
		L12.3,43.2z"/>
	<path fill="#262626" d="M64.7,43.2c-0.2-1.2-1.3-1.6-2.4-1.7c-3.7-0.4-4.4,2.4-4.4,3.6c0,2,0.6,3.6,4.2,3.6c0.7,0,2.5-0.7,2.5-1.8
		h5.3c-0.2,3.3-5.8,4.1-8.2,4.1c-5.1,0-9.4-0.9-9.2-5.9c0.2-3.6,3.5-6,10.2-5.9c3.7,0.1,7.3,1.2,7.3,3.9L64.7,43.2L64.7,43.2
		L64.7,43.2z"/>
	<polygon fill="#262626" points="18.5,39.5 25.3,39.5 31.1,47.6 31.1,47.6 31.1,39.5 35.5,39.5 35.5,50.7 29,50.7 22.9,42.6 
		22.8,42.6 22.8,50.7 18.5,50.7 	"/>
	<path fill="#262626" d="M36.8,39.5h8.2c4,0,6.3,1.1,6.3,2.8c0,1-1,2.2-3.2,2.6v0c2.6,0.2,3.6,1.8,3.6,2.8c0,2-2.3,3.1-6.7,3.1h-8.2
		L36.8,39.5L36.8,39.5L36.8,39.5z M41.6,43.8H43c2.1,0,3.2-0.2,3.2-1c0-0.9-0.9-1.2-2.8-1.2h-1.8V43.8L41.6,43.8L41.6,43.8z
		 M41.6,48.4H43c2.6,0,3.5-0.3,3.5-1.1c0-0.9-1.2-1.3-3.1-1.3h-1.8V48.4L41.6,48.4z"/>
	<path fill="#262626" d="M58.5,22.3L39,35.1l6.6-15.5l3.1-7.2c1.3-2.3,3.6-3.8,6.2-3.8c2.5,0,4.7,1.2,6.1,3.3
		c1.4,2.1,1.5,5.6,0.1,7.8C60.4,20.7,59.5,21.6,58.5,22.3L58.5,22.3z"/>
	<path fill="#262626" d="M48.8,10l-9.6,22.6l-0.4-2.5l-2.9-18.5c-0.1-1.1,0.4-2.1,1.3-2.7l1.4-0.8c0.1-0.3-0.3-0.4-0.5-0.5l-2.7,0
		c-0.2-2.7,1-5.1,3.3-6.6C40.4-0.1,43-0.4,45,0.6c2.6,1,4.3,3.8,4.4,6.5C49.4,8.1,49.2,9.1,48.8,10L48.8,10z"/>
	<path fill="#262626" d="M30.3,32.7l-9.5-22.6c-1-2.4-0.6-5.6,1.2-7.6c1.9-2.1,4.5-2.9,7.2-2.2c2.3,0.6,4.4,2.7,5,5.1
		c0.3,0.9,0.2,1.9,0.2,2.9L30.3,32.7L30.3,32.7z"/>
	<path fill="#262626" d="M10.1,21.4c-1.9-1.7-2.8-3.9-2.6-6.5c0.3-2.6,2.3-5.2,4.9-6c2.6-0.8,5.3-0.2,7.2,1.7
		c0.8,0.8,1.3,1.6,1.7,2.5l9.2,22L10.1,21.4L10.1,21.4z"/>
	<path fill="#262626" d="M8,37.5c-2.6-0.3-4.5-1.6-5.7-4S1.4,27.9,3,25.8c1.8-2.1,4.3-3.2,6.9-2.6c1,0.2,1.9,0.6,2.7,1.1l19.7,13.2
		L8,37.5L8,37.5z"/>
	<path fill="#262626" d="M61.5,37.5c2.6-0.3,4.5-1.6,5.7-4s0.9-5.6-0.7-7.7c-1.8-2.1-4.3-3.2-6.9-2.6c-1,0.2-1.9,0.6-2.7,1.1
		L37.1,37.5L61.5,37.5L61.5,37.5z"/>
</g>
</svg>
