<?xml version="1.0" encoding="utf-8"?>
<!-- Generator: Adobe Illustrator 18.1.0, SVG Export Plug-In . SVG Version: 6.00 Build 0)  -->
<!DOCTYPE svg PUBLIC "-//W3C//DTD SVG 1.1//EN" "http://www.w3.org/Graphics/SVG/1.1/DTD/svg11.dtd">
<svg version="1.1" id="Layer_1" xmlns="http://www.w3.org/2000/svg" xmlns:xlink="http://www.w3.org/1999/xlink" x="0px" y="0px"
	 viewBox="0 0 124 32" enable-background="new 0 0 124 32" xml:space="preserve">
<g>
	<path fill="#262626" d="M75.6,9c-2,0-3.6,0.5-5.1,1.4c0-4.7,0-9,0.2-10.4L61,1.7v0.9l1,0.2c1.3,0.3,1.7,1,2,2.8
		c0.3,3.5,0.2,22.3,0,25.4c2.6,0.6,5.3,1,8,1c7.5,0,12.1-4.9,12.1-12.5C84.1,13.4,80.4,9,75.6,9L75.6,9z M72.3,30.3
		c-0.5,0-1.3,0-1.7-0.2c-0.2-2.1-0.3-10.7-0.2-18.3c0.9-0.3,1.4-0.5,2.2-0.5c3.1,0,4.9,3.8,4.9,8.5C77.5,25.7,75.3,30.3,72.3,30.3
		L72.3,30.3z"/>
	<path fill="#262626" d="M25.1,0.5H0v1.4L1.4,2C3.3,2.3,4,3.5,4.3,6.3c0.5,5.3,0.3,14.8,0,19.4c-0.3,2.8-1,4.1-2.9,4.2L0,30.2v1.2
		h16.1v-1.2l-1.7-0.3c-1.9-0.2-2.6-1.4-2.9-4.2c-0.2-1.9-0.3-5-0.3-8.8l3.4,0.2c2.2,0,3.1,1.8,3.6,4.2h1.3V10.8h-1.3
		c-0.5,2.5-1.4,4.2-3.6,4.2l-3.4,0.2c0-5,0.2-9.7,0.3-12.5h5c3.9,0,5.8,2.5,7.3,6.9l1.4-0.5L25.1,0.5L25.1,0.5z"/>
	<path fill="#262626" d="M33.3,8.7c7.1,0,10.7,5,10.7,11.6c0,6.3-4,11.6-11.1,11.6s-10.7-5-10.7-11.6C22.1,14,26.1,8.7,33.3,8.7
		L33.3,8.7z M32.8,10.2c-3.1,0-4,4.4-4,10.2c0,5.6,1.4,10.2,4.3,10.2c3.3,0,4.1-4.4,4.1-10.2C37.2,14.7,35.8,10.2,32.8,10.2
		L32.8,10.2z"/>
	<path fill="#262626" d="M86,20.5c0-6,3.7-11.8,11-11.8c6,0,8.8,4.6,8.8,10.6H92.6c-0.2,5.4,2.4,9.4,7.5,9.4c2.3,0,3.4-0.6,4.9-1.6
		l0.5,0.7c-1.4,2.1-4.6,4.1-8.5,4.1C90.6,31.9,86,27.2,86,20.5L86,20.5z M92.6,17.7l6.7-0.2c0-3-0.5-7.4-2.9-7.4
		C94,10.1,92.7,14.3,92.6,17.7L92.6,17.7z"/>
	<path fill="#262626" d="M122.8,9.9c-1.7-0.7-4-1.2-6.6-1.2c-5.3,0-8.5,3.2-8.5,7c0,3.8,2.4,5.4,5.8,6.6c3.6,1.4,4.6,2.3,4.6,4.1
		c0,1.8-1.3,3.4-3.6,3.4c-2.7,0-4.7-1.6-6.3-6l-1,0.3l0.2,6.5c1.7,0.7,4.9,1.4,7.5,1.4c5.6,0,9.1-3,9.1-7.5c0-3.1-1.6-4.9-5.3-6.3
		c-4-1.6-5.4-2.6-5.4-4.6s1.3-3.2,3-3.2c2.6,0,4.3,1.6,5.6,5.6l1-0.3L122.8,9.9L122.8,9.9z"/>
	<path fill="#262626" d="M62.5,9.3c-2.4-1.4-6.7-0.7-9,4.6l0.2-5.1l-9.5,1.9v0.9l1,0.2c1.3,0.2,1.9,0.9,2,2.8
		c0.3,3.5,0.2,9.7,0,12.8c-0.2,1.8-0.7,2.6-2,2.8l-1,0.2v1.2h13.3v-1.2l-1.7-0.2c-1.4-0.2-1.9-1-2-2.8c-0.3-2.8-0.3-8.4-0.2-11.9
		c0.7-1,3.9-1.9,6.7,0L62.5,9.3L62.5,9.3z"/>
</g>
</svg>
