<?xml version="1.0" encoding="utf-8"?>
<!-- Generator: Adobe Illustrator 18.1.0, SVG Export Plug-In . SVG Version: 6.00 Build 0)  -->
<!DOCTYPE svg PUBLIC "-//W3C//DTD SVG 1.1//EN" "http://www.w3.org/Graphics/SVG/1.1/DTD/svg11.dtd">
<svg version="1.1" id="RAW_ICONS_-_SQUARE__x2F__ROUNDED__x2F__CIRCLE"
	 xmlns="http://www.w3.org/2000/svg" xmlns:xlink="http://www.w3.org/1999/xlink" x="0px" y="0px" viewBox="0 0 64 64"
	 enable-background="new 0 0 64 64" xml:space="preserve">
<rect x="6.8" y="7" fill="#FFFFFF" width="48.8" height="48.8"/>
<g>
	<path fill="#DC5442" d="M26.6,35.9c-3.8,0-7,2.4-7,5.2c0,2.9,2.7,5.3,6.5,5.3c5.3,0,7.2-2.2,7.2-5.1c0-0.3,0-0.7-0.1-1
		c-0.4-1.6-2.1-2.5-4.1-4C28.3,36.1,27.5,35.9,26.6,35.9z"/>
	<path fill="#DC5442" d="M0,0v64h64V0H0z M34.4,23.5c0,2.1-1.2,3.8-2.8,5c-1.6,1.2-1.9,1.8-1.9,2.8c0,0.9,1.9,2.2,2.8,2.9
		c3,2.3,3.7,3.7,3.7,6.6c0,3.6-3.8,7.1-10.1,7.1C20.6,48,16,45.8,16,42.2c0-3.6,3.8-7.4,9.3-7.4c0.6,0,1.1,0,1.7,0
		c-0.8-0.7-1.4-1.4-1.4-2.5c0-0.7,0.2-1.3,0.5-1.8c-0.3,0-0.6,0-0.9,0c-4.5,0-7.1-3.2-7.1-7.1c0-3.9,4-7.4,8.8-7.4
		c2.5,0,9.4,0,9.4,0l-2.1,2.2h-2.5C33.5,19.2,34.4,21.3,34.4,23.5z M48,23h-4.4v4.4h-2.2V23h-4.3v-2.2h4.3v-4.4h2.2v4.4H48V23z"/>
	<path fill="#DC5442" d="M25.5,17.5c-2.5-0.1-4.2,2.5-3.8,5.8c0.4,3.3,2.9,5.7,5.4,5.7c2.5,0.1,4-2.1,3.6-5.4
		C30.2,20.4,28,17.6,25.5,17.5z"/>
</g>
</svg>
