<?xml version="1.0" encoding="utf-8"?>
<!-- Generator: Adobe Illustrator 18.1.0, SVG Export Plug-In . SVG Version: 6.00 Build 0)  -->
<!DOCTYPE svg PUBLIC "-//W3C//DTD SVG 1.1//EN" "http://www.w3.org/Graphics/SVG/1.1/DTD/svg11.dtd">
<svg version="1.1" id="Layer_1" xmlns="http://www.w3.org/2000/svg" xmlns:xlink="http://www.w3.org/1999/xlink" x="0px" y="0px"
	 viewBox="0 0 162 72" enable-background="new 0 0 162 72" xml:space="preserve">
<g id="Motif_Type">
	<path fill="#000018" d="M111.5,62.6c-0.1,3-1.1,4.8-2.9,4.8c-2.2,0-2.6-3-2.6-5.5c0-1.6,0-22,0-22h5.8v-1.3h-5.8c0,0,0-0.9,0-1.8
		v-7.8h-2.6c-1.2,4.9-5.3,8.8-10.4,9.6v1.3H97c0,0,0,18.3,0,18.9c0,5.7,0.1,6.7,1,8.5c1.2,2.6,3.6,3.7,6.9,3.7
		c5.2,0,8.2-3.1,8.3-8.4L111.5,62.6"/>
	<path fill="#000018" d="M74.6,71.3c-9.5,0-16.3-7-16.3-16.7c0-10.1,7.2-17.5,17.1-17.5c9.3,0,16,6.9,16,16.5
		C91.4,64,84.5,71.3,74.6,71.3 M75.1,38.8c-5,0-7,4.2-7,14.9c0,11,1.1,15.9,6.8,15.9c5.5,0,6.6-4.5,6.6-15.6
		C81.5,42.9,79.8,38.8,75.1,38.8z"/>
	<path fill="#000018" d="M152.8,18.4c-8.9,0-14.1,8.1-14.5,18.8v1.4h-5.2v1.3h5.1v0.3l0,0v28.3h-4.5v1.3h18.1v-1.3h-4.5V40.2l0,0
		v-0.3h5.3v-1.3h-5.3v-0.5l0,0v-4.7c0-7,0.4-9.3,1.6-11.3c1-1.4,2.5-2.2,4.4-2.2c0.6,0,0.8,0,1.5,0.2c-0.8,1.4-1.1,2.6-1.1,3.8
		c0,2.5,1.5,4.2,3.8,4.2c2.1,0,3.6-1.4,3.6-3.6C161,21,157.6,18.4,152.8,18.4"/>
	<polyline fill="#000018" points="127.6,38.6 114.9,38.6 114.9,39.9 118.5,39.9 118.5,68.5 114.9,68.5 114.9,69.7 131.2,69.7 
		131.2,68.5 127.6,68.5 127.6,38.6 	"/>
	<path fill="#000018" d="M53.5,68.4V50.8c0-4-0.5-6.7-1.7-8.7c-1.8-3-4.9-4.6-8.7-4.6c-4.7,0-8.3,2.6-9.6,7.1
		c-0.4-4.6-4-7.6-9.2-7.6c-5,0-8.7,2.8-9.9,7.4c0-2.3,0.1-6.9,0.1-6.9C12,37.9,9.2,38,1,38v1.1h4.9v29.3H1v1.3h17.5v-1.3h-3.6V52.9
		c0-4.8,0.4-7,1.3-8.9c1.1-2.4,3-3.8,5.2-3.8c1.6,0,2.8,0.7,3.3,2.1c0.4,1.1,0.6,2.1,0.6,5.5v20.7h-3.6v1.3h16.2v-1.3h-3.6V52.4
		c0-3.8,0.2-5.8,0.9-7.4c1-2.8,3-4.3,5.4-4.3c3.5,0,4,2.7,4,7.1v20.8h-3.6v1.3h16.3v-1.3L53.5,68.4L53.5,68.4z"/>
</g>
<g id="Circles">
	<g>
		<path fill="#83D2E4" d="M122,0c-5.9-0.5-11.1,3.9-11.6,9.9s3.9,11.1,9.9,11.6c5.9,0.5,11.1-3.9,11.6-9.9C132.4,5.7,128,0.5,122,0"
			/>
	</g>
	<path fill="#00A4E4" d="M123,34.6c1.3,0,2.4-0.5,3.3-1.4c0.9-0.9,1.3-2,1.3-3.3c0-1.3-0.4-2.4-1.3-3.2c-0.9-0.9-2-1.3-3.3-1.3
		c-1.3,0-2.4,0.4-3.3,1.3c-0.9,0.9-1.3,2-1.3,3.3c0,1.3,0.4,2.5,1.3,3.4C120.6,34.2,121.7,34.6,123,34.6"/>
	<circle fill="#73C167" cx="111.9" cy="22.1" r="7.2"/>
	<polyline fill="#FFFFFF" points="125.5,12.1 129,14.7 124.8,13.3 127.3,17 123.8,14.3 124.9,18.5 122.5,14.9 122.2,19.3 121.1,15 
		119.4,19.1 119.7,14.7 116.8,18 118.5,13.9 114.7,16.1 117.6,12.9 113.3,13.7 117.2,11.5 112.8,10.9 117.1,10.1 113.2,8.1 
		117.6,8.8 114.5,5.6 118.4,7.6 116.5,3.7 119.6,6.8 119.1,2.5 120.9,6.5 121.9,2.2 122.3,6.6 124.7,2.9 123.6,7.1 127.1,4.3 
		124.7,8.1 128.8,6.6 125.4,9.3 129.8,9.2 125.6,10.7 129.8,12 125.5,12.1 	"/>
	<path fill="#28B34B" d="M111.3,14.9c1.3,3.2,4.2,5.7,7.8,6.4c-0.4-3.6-3.5-6.4-7.2-6.4C111.7,14.9,111.5,14.9,111.3,14.9z"/>
</g>
</svg>
