<?xml version="1.0" encoding="utf-8"?>
<!-- Generator: Adobe Illustrator 18.1.0, SVG Export Plug-In . SVG Version: 6.00 Build 0)  -->
<!DOCTYPE svg PUBLIC "-//W3C//DTD SVG 1.1//EN" "http://www.w3.org/Graphics/SVG/1.1/DTD/svg11.dtd">
<svg version="1.1" id="Layer_1" xmlns="http://www.w3.org/2000/svg" xmlns:xlink="http://www.w3.org/1999/xlink" x="0px" y="0px"
	 viewBox="0 0 172 22" enable-background="new 0 0 172 22" xml:space="preserve">
<g>
	<g>
		<path fill="#262626" d="M0,3.3l1-0.1h1.7h2.1l0.1,10.5l-0.1,2.4l-0.1,1.2H8V3.2h1.5c0.5,0,1.1,0,2.2,0.1L13.1,0H0.9L0,3.3z"/>
		<path fill="#262626" d="M14.6,17.3h3.2v-0.9v-1V9.1c0.8-0.4,1-0.5,1.7-0.5c1.4,0,1.8,0.8,1.8,2.2v4.5v2.2h3.2l-0.1-0.8l0.1-1.9
			v-4.7c0-2.6-1.8-4.5-4.3-4.5c-0.9,0-1.3,0.1-2.4,0.8V2.2V1c0-0.3,0.1-0.5,0.1-1h-3.3l0.1,1.2v3.5v10.5c0,0.1,0,0.8-0.1,1.5v0.5
			L14.6,17.3L14.6,17.3z"/>
		<path fill="#262626" d="M30.5,10c1-1.3,1.4-1.5,2.4-1.5c1.1,0,1.8,0.4,2.5,1.5H30.5z M38.7,12.2c0-2.2-0.3-2.8-0.9-4.1
			c-0.9-1.6-2.9-2.6-4.7-2.6c-3.2,0-5.9,2.7-5.9,6.2c0,3.5,2.5,6,5.9,6c0.8,0,1.4-0.1,2.2-0.4c1.3-0.4,1.9-1,3.2-2.4l-2.2-2
			c-1.3,1.3-2.2,1.9-3.3,1.9c-1.4,0-2.2-0.9-2.7-2.6h8.3L38.7,12.2L38.7,12.2z"/>
		<path fill="#262626" d="M46.4,17.3H50v-1V15v-0.4l0.5-6.2V6.8l0.3,0.8l4.1,7l3.8-6.7l0.4-1.1v1.3l0.4,4.7c0.1,1.9,0.1,2.4,0.3,4.5
			h3.3c-0.3-1.7-0.4-2.3-0.5-4.1l-1-9l-0.1-2.7L61.3,0h-1.8l-4.3,7.7l-0.4,0.9l-0.3-0.8L49.9,0h-1.8v1.2l-0.3,2.2l-0.9,9.6
			C46.9,15,46.9,15.6,46.4,17.3"/>
		<path fill="#262626" d="M74.3,11.5c0,1.7-1.3,3.1-2.9,3.1c-1.7,0-2.9-1.3-2.9-2.8c0-1.7,1.3-3.1,2.9-3.1S74.3,10,74.3,11.5
			 M71.2,5.5c-3.1,0-5.9,2.7-5.9,6c0,3.5,2.7,6.2,6,6.2c3.2,0,5.9-2.7,5.9-6C77.3,8.2,74.6,5.5,71.2,5.5"/>
		<path fill="#262626" d="M78.5,8.7h0.8h0.5v4.6c0,1.6,0.1,2.2,0.5,2.8c0.5,1,1.5,1.4,2.5,1.4c0.8,0,1.4-0.1,2.8-0.8l-0.8-2.5
			c-0.8,0.3-0.9,0.3-1.3,0.3c-0.5,0-0.8-0.4-0.8-1.7V8.7c1.2,0.1,1.5,0.1,2.6,0.1v-3h-1.4h-1.1V1.5h-3.1v1.7v2.4h-1.3L78.5,8.7
			L78.5,8.7z"/>
		<path fill="#262626" d="M87.9,17.3h3.3v-1.9V2.6c0-0.5,0-1.2,0.1-2.6h-3.3c0.1,2,0.1,2.4,0.1,5.1V12
			C88.1,14.6,88.1,15.2,87.9,17.3"/>
		<path fill="#262626" d="M97.3,10c1.1-1.3,1.5-1.5,2.6-1.5c1,0,1.7,0.4,2.4,1.5H97.3z M105.4,12.2c0-2.2-0.1-2.8-0.9-4.1
			c-0.9-1.6-2.8-2.6-4.6-2.6c-3.3,0-5.9,2.7-5.9,6.2c0,3.5,2.5,6,5.7,6c0.9,0,1.5-0.1,2.2-0.4c1.4-0.4,1.9-1,3.2-2.4l-2.1-2
			c-1.3,1.3-2.2,1.9-3.3,1.9c-1.4,0-2.2-0.9-2.7-2.6h8.2L105.4,12.2L105.4,12.2z"/>
		<path fill="#262626" d="M106.5,6.4l0.5,1.2l0.5,1.2l3.7,7.3c-0.3,0.8-0.5,1.2-0.8,1.5c-0.3,0.9-0.8,1.2-1.1,1.2
			c-0.5,0-0.9,0-1.8-0.5l-1,2.8c1.4,0.5,2.1,0.9,2.8,0.9c1,0,1.9-0.4,2.5-1c0.8-0.8,1.3-1.7,2.2-4.1l3.5-8.2l0.5-1.4l0.8-1.4h-3.5
			c-0.1,0.3-0.3,0.8-0.3,0.9c0,0-0.1,0.4-0.4,1l-1.9,4.6L110.3,7l-0.4-0.9l-0.5-1L106.5,6.4z"/>
		<path fill="#262626" d="M126.6,0v14.4v2.8h3.2c0-0.4-0.1-0.8-0.1-1v-1.9v-4.4h6.5l0.9-3.2L135,7h-1.8l-3.3-0.1V3.1h3.7
			c0.3,0,1,0,2.1,0.1h1.8l1.1-3.2H126.6z"/>
		<path fill="#262626" d="M148.9,11.5c0,1.7-1.3,3.1-2.9,3.1c-1.7,0-2.9-1.3-2.9-2.8c0-1.7,1.3-3.1,2.9-3.1
			C147.5,8.7,148.9,10,148.9,11.5 M145.8,5.5c-3.1,0-5.9,2.7-5.9,6c0,3.5,2.7,6.2,6,6.2c3.2,0,5.9-2.7,5.9-6
			C151.8,8.2,149.1,5.5,145.8,5.5"/>
		<path fill="#262626" d="M162.9,11.5c0,1.7-1.3,3.1-2.9,3.1c-1.5,0-2.9-1.3-2.9-2.8c0-1.7,1.4-3.1,2.9-3.1
			C161.7,8.7,162.9,10,162.9,11.5 M160,5.5c-3.2,0-5.9,2.7-5.9,6c0,3.5,2.7,6.2,5.9,6.2c3.3,0,6-2.7,6-6C166,8.2,163.3,5.5,160,5.5"
			/>
		<path fill="#262626" d="M168.7,17.3h3.3c-0.1-0.8-0.1-1.2-0.1-1.9V2.6c0-0.5,0-1.2,0.1-2.6h-3.2v5.1V12
			C168.8,14.6,168.8,15.2,168.7,17.3"/>
	</g>
</g>
</svg>
