<?xml version="1.0" encoding="utf-8"?>
<!-- Generator: Adobe Illustrator 18.1.0, SVG Export Plug-In . SVG Version: 6.00 Build 0)  -->
<!DOCTYPE svg PUBLIC "-//W3C//DTD SVG 1.1//EN" "http://www.w3.org/Graphics/SVG/1.1/DTD/svg11.dtd">
<svg version="1.1" id="Layer_1" xmlns="http://www.w3.org/2000/svg" xmlns:xlink="http://www.w3.org/1999/xlink" x="0px" y="0px"
	 viewBox="0 0 234 33" enable-background="new 0 0 234 33" xml:space="preserve">
<g>
	<path fill="#262626" d="M6.7,18.2V9.4l-2.6,1.2c0,0-0.7,1.5-0.6,3.7c0.1,1.7,1,3.8,1.8,4.6L6.7,18.2 M14.5,0c0.7,0,1.7,0.3,2.5,1
		c0.8,0.8,1,2,0.7,3.1c-0.2,1-0.6,1.5-1.6,2.1C15.1,7,13.9,7,13.9,7v4.3l2.1,1.7l-2.1,1.7v5.8c0,0,2.1-1.2,3.4-3.8
		c0,0,0-0.2,0.2-0.4c0.1,0.7,0,2.1-0.8,4c-0.6,1.4-1.7,2.7-3.1,3.5c-2.5,1.4-4.3,1.5-6.3,1.1c-2.3-0.5-4.4-1.8-5.9-4.1
		c-1-1.6-1.4-3.5-1.4-5.5C0.1,11.3,3,8,6.4,6.7c0.4-0.2,0.6-0.2,1.1-0.3c-0.3,0.2-0.6,0.4-1,0.7c-1.1,0.7-2,2.1-2.4,3.2l6.6-2.9v9.2
		l-5.3,2.6c0.6,0.8,2.5,2.1,4,2.3c2.6,0.3,4.2-0.9,4.2-0.9v-5.9l-2-1.7l2-1.7V7.1c-1.1-0.1-2.5-0.5-3.3-0.7C9.2,6.1,5.2,5,4.6,4.9
		C4,4.8,3.3,4.8,2.8,5.2C2.3,5.6,2,6.3,2.2,7c0.1,0.3,0.3,0.6,0.6,0.8c0,0-0.2,0-0.7-0.3C1.4,7.1,0.9,6.2,0.8,5.2
		C0.7,3.8,1.3,2.5,2.4,1.7c1-0.7,2.1-1,3.4-0.9c1.9,0.3,4.5,1.4,6.8,1.9c0.9,0.2,1.6,0.3,2.2-0.1c0.3-0.2,0.8-0.8,0.4-1.5
		c-0.5-0.8-1.5-0.8-2.3-1C13.8,0,14,0,14.5,0z"/>
	<path fill="#262626" d="M39.9,15.9l-3,2.1v-7.2L39.9,15.9 M39.8,8.9c0,0-2,1.2-3.4,2c-1.4,0.8-3.2,1.7-3.2,1.7v8.4l-1.2,1l0.2,0.2
		l1.1-1l3.7,3.3l6.4-5.1l-0.2-0.2l-3.5,2.8l-2.9-2.7v-1l5.9-4.3L39.8,8.9z"/>
	<path fill="#262626" d="M23.1,27.8c0.8,0.2,2.3,0.3,4.1-0.6c2-1,3-3.1,3-5.2l0.1-3.1v-6.7l1.3-1L31.4,11l-1.2,0.9l-2.9-3.2
		l-3.7,3.2V1.2L19,4.7c0.2,0.1,0.8,0.2,0.9,1.1v15.1l-2,1.5l0.1,0.2l1-0.7l2.6,2.5l4.1-3.3l-0.2-0.2l-1,0.8l-1-1v-8.4l1.2-1l1.8,2.3
		c0,0,0,5.4,0,7.2c0,1.9,0,4.3-1,5.5C24.5,27.4,24.1,27.5,23.1,27.8"/>
	<path fill="#262626" d="M51.8,27c-1.6-0.2-2.3-1.2-2.3-2c0-0.5,0.5-1.5,1.5-1.6c1-0.1,2,0.3,2.9,1.4l3.8-4.2l-0.2-0.2l-1,1.1
		c-1-1.2-2.5-1.9-4-2.1V6.6l9.9,18c0,0,0.1,0.2,0.5,0.2c0.3,0,0.3-0.3,0.3-0.3V6.4c0.8,0,2-0.5,2.6-1.1c1.9-2,1.1-4.1,0.9-4.3
		c-0.1,0.9-0.8,1.9-2,1.9c-1.6,0-2.5-1.1-2.5-1.1L58.2,6l0.2,0.2L59.5,5c1.3,1.2,2.3,1.3,3.3,1.4v10.5L55.5,3.6
		c-0.7-1.1-1.7-2.1-3.3-2.1c-1.8,0-3.1,1.6-3.3,3c-0.2,1.6,0,1.9,0,1.9s0.3-1.7,1.4-1.7c1,0,1.5,0.9,1.8,1.6v3.8
		c-1,0.1-3.6,0.2-3.8,2.9c0,1,0.6,2,1.1,2.4c0.7,0.5,1.2,0.5,1.2,0.5s-0.8-0.5-0.6-1.3c0.2-0.8,1.9-0.9,1.9-0.6v5.4
		c-0.8,0-3.3,0.1-4.5,2.3c-0.7,1.3-0.7,2.8,0.1,3.8C48.4,26.3,49.6,27.4,51.8,27"/>
	<path fill="#262626" d="M72.7,15.9l-3,2.1v-7.2L72.7,15.9 M72.6,8.9c0,0-2,1.2-3.4,2c-1.4,0.8-3.2,1.7-3.2,1.7v8.4l-1.2,1l0.2,0.2
		l1.1-1l3.7,3.3l6.4-5.1l-0.2-0.2l-3.5,2.8l-2.9-2.7v-1l5.9-4.3L72.6,8.9z"/>
	<path fill="#262626" d="M81.6,24.7l-3.1-2.6l-1.4,1L77,22.9l1.4-1v-7.2c0.1-3-2.8-2.3-2.6-5.4c0.1-1.4,1.4-2.5,2.1-2.8
		C78.6,6,79.4,6,79.4,6s-1.3,0.8-1,2C79,9.7,82,9.9,82,12.3v8.2l2.3,1.8l0.6-0.5v-8.9l-1.2-1.2l3.1-2.8l2.8,2.5l-1.1,1.1v7.9
		l2.7,2.2l0.5-0.3v-9.5l-1.2-1.1l3.1-2.8l2.9,2.4l1.1-1l0,0.2l-2.6,2.3v7.8l-6.8,4.1L85,21.9L81.6,24.7"/>
	<path fill="#262626" d="M219.2,15.9l-3,2.1v-7.2L219.2,15.9 M219.1,8.9c0,0-2,1.2-3.4,2c-1.4,0.8-3.2,1.7-3.2,1.7v8.4l-1.2,1
		l0.2,0.2l1.1-1l3.7,3.3l6.4-5.1l-0.2-0.2l-3.5,2.8l-2.9-2.7v-1L222,14L219.1,8.9z"/>
	<polyline fill="#262626" points="189.1,12.5 189.2,12.7 190.4,11.6 192.2,13.6 192.2,20.6 191.3,21.4 194.2,24.5 197,21.7 
		195.9,20.5 195.9,12.1 196.6,11.5 198.6,13.8 198.6,20.7 197.8,21.5 200.4,24.4 203.2,21.6 202.2,20.6 202.2,12.1 203,11.5 
		205,13.8 205,20.7 204.3,21.4 207.2,24.5 211.1,20.9 210.9,20.7 210,21.6 208.6,20 208.6,12.1 210,11.1 209.8,10.9 208.4,11.9 
		205.8,9 202,11.9 199.3,9.1 195.6,11.9 193,9.1 189.1,12.5 	"/>
	<polyline fill="#262626" points="181.2,12.2 181.3,12.4 182.3,11.6 184,13.4 184,21.4 182.8,22.4 183,22.6 184.1,21.6 186.7,24.5 
		190.4,21.2 190.3,21 189.2,22 187.6,20.2 187.6,12.4 189,11.3 188.8,11.1 187.6,12.2 184.9,9 181.2,12.2 	"/>
	<polyline fill="#262626" points="182.2,5.7 185,3.1 187.3,5.6 184.5,8.2 182.2,5.7 	"/>
	<path fill="#262626" d="M170.7,18.2V9.4l-2.6,1.2c0,0-0.7,1.5-0.6,3.7c0.1,1.7,1,3.8,1.8,4.6L170.7,18.2 M178.5,0
		c0.7,0,1.7,0.3,2.5,1c0.8,0.8,1,2,0.7,3.1c-0.2,1-0.6,1.5-1.6,2.1c-1,0.7-2.3,0.7-2.3,0.7v4.3l2.1,1.7l-2.1,1.7v5.8
		c0,0,2.1-1.2,3.4-3.8c0,0,0-0.2,0.2-0.4c0.1,0.7,0,2.1-0.8,4c-0.6,1.4-1.7,2.7-3.1,3.5c-2.5,1.4-4.3,1.5-6.2,1.1
		c-2.3-0.5-4.4-1.8-5.9-4.1c-1-1.6-1.5-3.4-1.4-5.4c0.1-3.9,3-7.3,6.4-8.6c0.4-0.2,0.6-0.2,1.1-0.3c-0.3,0.2-0.6,0.4-1,0.7
		c-1.1,0.7-2,2.1-2.4,3.2l6.6-2.9v9.2l-5.2,2.6c0.6,0.8,2.5,2.1,4,2.3c2.6,0.3,4.2-0.9,4.2-0.9v-5.9l-2-1.7l2-1.7V7.1
		c-1.1-0.1-2.5-0.5-3.3-0.7c-1.1-0.3-5.1-1.4-5.7-1.5c-0.6-0.1-1.4-0.1-1.8,0.3c-0.5,0.4-0.8,1.1-0.6,1.8c0.1,0.3,0.3,0.6,0.6,0.8
		c0,0-0.2,0-0.7-0.3c-0.7-0.5-1.3-1.3-1.4-2.4c-0.1-1.4,0.5-2.6,1.6-3.5c1-0.7,2.1-1,3.4-0.9c1.9,0.3,4.5,1.4,6.8,1.9
		c0.9,0.2,1.6,0.3,2.2-0.1c0.3-0.2,0.8-0.8,0.4-1.5c-0.5-0.8-1.5-0.8-2.3-1C177.8,0,178,0,178.5,0z"/>
	<path fill="#262626" d="M227.5,10.6v4.2l1.4,1.2c0,0,3-2.4,4.1-4.6c0,0-1.4,1.8-3.2,1.3C228.3,12.1,227.5,10.6,227.5,10.6
		 M224.1,21.6c0,0,1.3-2.2,3.6-1.7c2.1,0.5,2.9,2.8,2.9,2.8v-5.3l-1.5-1.3C227.4,17.8,224.5,20.2,224.1,21.6z M226.3,25.7
		c-0.5,0.1-2.3-0.3-2.7-2.3c-0.5-1.8,0.9-3.1,2.8-5.1l-2.3-2.1v-4c0,0,1.7-0.8,3-1.7c1.3-0.8,2.7-1.7,2.7-1.7s1,1.2,2.1,1.1
		c1.8-0.2,1.7-1.5,1.6-1.8c0.3,0.5,1.1,2.1-2,5.7l2.5,2v5.2c0,0-2.9,1.5-5.7,3.5c0,0-1.5-1.9-2.9-1C224.6,24.2,225,25.2,226.3,25.7z
		"/>
	<path fill="#262626" d="M125.4,19.8l3.3,2.9v-9l-3.3-3V19.8 M132.1,12.4l1.1-1l0.2,0.2l-1.1,1v8.3c0,0-2.1,1.1-3.6,1.9
		c-1.5,0.8-3,1.8-3,1.8l-3.8-3.3l-1,0.9l-0.2-0.2l1.1-0.9v-8.9l0,0c0,0,1.8-0.8,3.3-1.7c1.4-0.8,2.9-1.6,2.9-1.6L132.1,12.4z"/>
	<path fill="#262626" d="M139.7,11.6l2.5-2.5c0,0,0.3,0.3,0.7,0.5c0.2,0.1,0.9,0.5,1.6,0.1c0.3-0.2,0.4-0.2,0.8-0.7
		c0.1,1.9-0.8,3.3-2,3.8c-0.5,0.2-1.8,0.7-3.3-1.1v8.9l1.5,1.4l1.3-1.1l0.2,0.2l-4.1,3.4l-3.1-2.8l-1.1,1l-0.2-0.2l1.7-1.5v-7.7
		l-1.3-1.7l-1.1,1l-0.2-0.2l3.9-3.5L139.7,11.6"/>
	<path fill="#262626" d="M149.9,15.3l4.5-6.6c0,0,0.6,0.7,1.6,1c1.4,0.3,2.6-1,2.6-1c-0.2,1.8-1.1,3.7-3,4.1c-1.6,0.3-3.1-1-3.1-1
		l-0.3,0.5l6.2,9.5l1.2-1.1l0.2,0.2l-4.3,3.8L149.9,15.3"/>
	<path fill="#262626" d="M146.2,6.6c0-1.4-0.6-2.3-1.3-2.2l4.9-3.4v19.5l0,0l1.3,1.4l1-0.8l0.2,0.2l-4,3.4l-2.7-2.5l-1.1,1l-0.2-0.2
		l1.9-1.6V6.6"/>
	<path fill="#262626" d="M114.7,12.1c0,0-0.6,0.6-1.4,0.6s-1.4-0.6-1.4-0.6v2.7c0,0,0.6-0.6,1.4-0.6s1.4,0.6,1.4,0.6V12.1
		 M114.7,6.3l-1.9-1.7l-0.9,0.7v6.2c0,0,0.6,0.7,1.4,0.7s1.4-0.7,1.4-0.7L114.7,6.3L114.7,6.3z M111.9,24.1c0,0,1.1,0.3,2-0.3
		c0.9-0.8,0.8-1.8,0.8-1.8v-6.8c0,0-0.5-0.7-1.4-0.7c-0.8,0-1.4,0.7-1.4,0.7L111.9,24.1L111.9,24.1z M105.1,6.3c0-1.3-0.5-2-1.4-2.1
		c-1.2,0-1.6,1.7-1.6,1.7s-0.2-1.4,0.9-2.6c0.7-0.7,1.8-1.6,3.7-1.2c1.9,0.5,2.5,2,2.5,3.3v18.1c0,0,0.7,0.1,1.2,0.2
		c0.6,0.1,1.1,0.3,1.1,0.3V2.1h0.2v3l3.9-3.2l2.9,2.6l1.4-1.1l0.2,0.2l-1.4,1.2v16.9c-0.1,1.1-0.2,2.2-1.3,2.9
		c-2.3,1.4-5.1-0.2-7.6-0.6c-1.8-0.3-4.8-0.7-5.5,1.1c-0.2,0.6-0.2,1.4,0.6,2c1.7,1.1,9.2-1.9,11.8-0.7c2.4,1.1,2.3,2.8,2,4
		c-0.6,2.3-3.4,2.6-3.4,2.6s1.4-0.8,1-2.1c-0.2-0.7-0.7-0.8-2.1-0.7c-3.2,0.3-7.1,1.9-9.7,0.8c-1.3-0.6-2.3-2.2-2.1-3.8
		c0.1-2.4,2.8-3.3,2.8-3.3V15c-0.1-0.3-1.5-0.2-1.8,0.4c-0.5,1,0.6,1.4,0.6,1.4s-0.9,0.1-1.6-0.7c-0.3-0.5-1.1-1.9-0.1-3.3
		c0.8-1.1,1.8-1.3,3.1-1.5L105.1,6.3L105.1,6.3z"/>
</g>
</svg>
