<?xml version="1.0" encoding="utf-8"?>
<!-- Generator: Adobe Illustrator 18.1.0, SVG Export Plug-In . SVG Version: 6.00 Build 0)  -->
<!DOCTYPE svg PUBLIC "-//W3C//DTD SVG 1.1//EN" "http://www.w3.org/Graphics/SVG/1.1/DTD/svg11.dtd">
<svg version="1.1" id="Layer_1" xmlns="http://www.w3.org/2000/svg" xmlns:xlink="http://www.w3.org/1999/xlink" x="0px" y="0px"
	 viewBox="0 0 78 38" enable-background="new 0 0 78 38" xml:space="preserve">
<path fill="#262626" d="M2.2,2.6L0.2,2.3H0V0.9h11.3v1.5h-0.3C9.7,2.2,9,2.6,9,3.8v0.7l4.8,22.3l2.9-14.6l-1.6-7.4
	c-0.3-1.9-1.1-2.6-2.6-2.5h-0.2V0.9h10.9v1.5h-0.2c-1.8-0.1-2.6,0.4-2.6,1.8l4.8,22.6h0.3l4.3-21.5V4.4c0-1.6-0.8-2.2-2.6-2H27V0.9
	h9.5v1.5H36l-2.2,0.3l-1.5,2.9l-7.6,32.3h-2.2l-4.7-21.2L13,37.9h-2.4l-7.2-33L2.2,2.6z"/>
<path fill="#262626" d="M53.2,0.5v12.8h-1.5v-0.4c0-7.2-2.2-10.9-6.8-10.9c-3.1-0.1-4.7,1.3-4.5,4.5c0,1.6,0.5,3.2,1.6,4.6l4.8,3.9
	l6,5.4c1.6,2.2,2.4,4.9,2.4,8c0,6.1-3.2,9.1-9.5,9.1c-2.4,0-4.8-0.7-7.2-2.3l-1,2.2h-1.1V24.4h1.3v0.4c0,3.9,1,6.8,2.7,8.8
	c1.5,1.5,3.1,2.2,4.8,2.2c3.7,0,5.6-1.9,5.6-5.8c0-3.6-2.4-7.1-7.2-10.4c-5-3.3-7.5-6.9-7.5-11.2C36,5.8,37,3.8,38.8,2.3
	C40.2,0.7,42.2,0,44.6,0c2.4,0,4.5,0.7,6.6,2.3l1.1-1.9L53.2,0.5L53.2,0.5z"/>
<path fill="#262626" d="M64.5,28.7c-0.2-1.7-1.3-2.6-3.1-2.6c-3.5,0.4-3.4,3.9-3.4,3.9c0,2.5,0.8,4.3,2.6,6c1.1,1.3,2.9,1.9,5,2
	c6-0.1,9-2.8,9.2-8V4.5c-0.2-1.5,0.6-2.2,2.1-2.2H78V0.9H65.6v1.5h1.1c1.5,0,2.1,0.7,2.2,2.2V31c0,0,0,4.8-3.7,5.2
	c-3.2,0.4-4.3-4.1-4.3-4.1C63.4,32.1,64.5,30.9,64.5,28.7"/>
</svg>
