<?xml version="1.0" encoding="utf-8"?>
<!-- Generator: Adobe Illustrator 18.1.1, SVG Export Plug-In . SVG Version: 6.00 Build 0)  -->
<!DOCTYPE svg PUBLIC "-//W3C//DTD SVG 1.1//EN" "http://www.w3.org/Graphics/SVG/1.1/DTD/svg11.dtd">
<svg version="1.1" id="Layer_1" xmlns="http://www.w3.org/2000/svg" xmlns:xlink="http://www.w3.org/1999/xlink" x="0px" y="0px"
	 viewBox="0 0 40 40" enable-background="new 0 0 40 40" xml:space="preserve">
<ellipse fill="#3AAD2A" cx="20" cy="20" rx="4.8" ry="4.8"/>
<path fill="#3AAD2A" d="M9.9,37c-0.4,0-0.8-0.1-1.1-0.3C3.3,32.9,0,26.7,0,20C0,13.3,3.3,7.1,8.8,3.3c0.9-0.6,2.1-0.4,2.8,0.5
	C12.2,4.8,11.9,6,11,6.7c-4.4,3-7,8-7,13.3c0,5.3,2.6,10.3,7,13.3c0.9,0.6,1.1,1.9,0.5,2.8C11.2,36.7,10.5,37,9.9,37z"/>
<path fill="#3AAD2A" d="M15,31.9c-0.3,0-0.6-0.1-0.9-0.2C9.7,29.4,7,24.9,7,20s2.7-9.4,7.1-11.7c1-0.5,2.2-0.1,2.7,0.9
	c0.5,1,0.1,2.2-0.9,2.7c-3,1.6-4.9,4.7-4.9,8.1s1.9,6.5,4.9,8.1c1,0.5,1.4,1.7,0.9,2.7C16.4,31.5,15.7,31.9,15,31.9z"/>
<path fill="#3AAD2A" d="M25,31.9c-0.7,0-1.4-0.4-1.8-1.1c-0.5-1-0.1-2.2,0.9-2.7c3-1.6,4.9-4.7,4.9-8.1c0-3.4-1.9-6.5-4.9-8.1
	c-1-0.5-1.4-1.7-0.9-2.7c0.5-1,1.7-1.4,2.7-0.9C30.3,10.6,33,15.1,33,20c0,4.9-2.7,9.4-7.1,11.7C25.6,31.8,25.3,31.9,25,31.9z"/>
<path fill="#3AAD2A" d="M30.1,37c-0.6,0-1.3-0.3-1.6-0.9c-0.6-0.9-0.4-2.2,0.5-2.8c4.4-3,7-8,7-13.3S33.4,9.7,29,6.7
	c-0.9-0.6-1.1-1.9-0.5-2.8c0.6-0.9,1.9-1.2,2.8-0.5C36.7,7.1,40,13.3,40,20c0,6.7-3.3,12.9-8.8,16.7C30.9,36.9,30.5,37,30.1,37z"/>
</svg>
