<?xml version="1.0" encoding="utf-8"?>
<!-- Generator: Adobe Illustrator 18.1.0, SVG Export Plug-In . SVG Version: 6.00 Build 0)  -->
<!DOCTYPE svg PUBLIC "-//W3C//DTD SVG 1.1//EN" "http://www.w3.org/Graphics/SVG/1.1/DTD/svg11.dtd">
<svg version="1.1" id="Layer_1" xmlns="http://www.w3.org/2000/svg" xmlns:xlink="http://www.w3.org/1999/xlink" x="0px" y="0px"
	 viewBox="0 0 155 35" enable-background="new 0 0 155 35" xml:space="preserve">
<g>
	<path fill="#262626" d="M0.3,0h6.6c3.6,0,5,0.3,6.6,2.3c1,1,1.3,2.3,1.3,3.7c0,1.7-0.7,3-2.6,4c3.6,1.3,3.6,4.3,3.6,5.3
		c0,1.7-0.7,3.7-2,4.6c-2,1.7-3,2-6.6,2H0.3V0L0.3,0z M6,8.3h1.7c0.7,0,2,0,2-1.7S8.3,5,7.6,5H6L6,8.3L6,8.3z M6,17h2.3
		c0.7,0,2.3,0,2.3-2s-1.7-2-2.3-2H6V17L6,17z"/>
	<polygon fill="#262626" points="17.3,0 22.3,0 22.3,22 17.3,22 	"/>
	<path fill="#262626" d="M32.5,5c6,0,8.6,4.6,8.6,8.7c0,4-2.6,9-8.6,9s-8.9-5-8.9-9S26.6,5,32.5,5L32.5,5z M32.5,18.1
		c2,0,3.6-1.7,3.6-4.3c0-2.3-1.7-4-3.6-4c-2.3,0-4,1.7-4,4C28.6,16.4,30.2,18.1,32.5,18.1L32.5,18.1z"/>
	<path fill="#262626" d="M51.2,5c6,0,9,4.6,9,8.7c0,4-3,9-9,9s-9-5-9-9S45.2,5,51.2,5L51.2,5z M51.2,18.1c2,0,4-1.7,4-4.3
		c0-2.3-2-4-4-4c-2,0-4,1.7-4,4C47.2,16.4,49.2,18.1,51.2,18.1L51.2,18.1z"/>
	<path fill="#262626" d="M61.2,5.6h4.6v1.7l0,0C66.2,6.6,67.5,5,70.5,5c1.3,0,3.3,0.7,4.6,3c1-1.7,2.6-3,5.3-3c1,0,3,0.3,4.3,1.7
		c1.3,1.7,1.7,2.7,1.7,6.3v9h-4.9v-8.6c0-1.3,0-3.7-2.3-3.7c-3,0-3,2.3-3,3.3v9h-4.6v-9c0-0.7,0-3.3-2.6-3.3c-2.6,0-2.6,2.7-2.6,3.7
		v8.7h-5L61.2,5.6L61.2,5.6z"/>
	<path fill="#262626" d="M88.5,0h5v7c1.7-2,4-2,4.6-2c3.6,0,8.3,2.3,8.3,8.7c0,6-4.3,9-8.3,9c-2.3,0-4-1.3-4.6-2.3h-0.3V22h-4.6V0
		L88.5,0z M97.4,18.1c2.3,0,4-2,4-4.3c0-2-1.7-4-4-4c-2.6,0-4,2-4,4C93.4,16,94.8,18.1,97.4,18.1L97.4,18.1z"/>
	<path fill="#262626" d="M124.8,17c-1,1.7-2,3-3.3,4c-1.7,1-3,1.7-5,1.7c-4.6,0-8.6-4-8.6-9c0-4.3,3.6-8.7,8.6-8.7c5,0,8.6,4,8.6,9
		c0,0.7,0,1,0,1.3h-12.4c0.3,2,2,3,3.6,3c1.7,0,2.3-0.7,3-1.3L124.8,17L124.8,17z M120.4,12.1c-0.3-1-1.3-3-4-3c-2.3,0-3.3,2-3.6,3
		H120.4L120.4,12.1z"/>
	<path fill="#262626" d="M127.1,5.6h4.6v1.7l0,0c0.7-0.3,2.6-2,4.6-1.7v4.6c-2,0-4.3,0-4.3,2.7v9h-5L127.1,5.6L127.1,5.6z"/>
	<path fill="#262626" d="M155,20.1c0,2.3-0.3,5.6-1,7c-1.3,2-4.3,4-8.3,3.3c-5.6-0.3-7.3-3-7.6-5.6h5.3c0.7,1.7,2.3,1.7,2.6,1.7
		c2.6,0,4-0.3,4-5.6v-0.3l0,0c-0.7,0.7-2,2.3-4.6,2.3c-4.3,0-8.3-3.7-8.3-8.7c0-5.6,4-9,8.3-9c2,0,3.6,0.7,4.6,2l0,0V5.6h5L155,20.1
		L155,20.1z M146,18.1c2.3,0,4-1.7,4-4c0-2.7-1.7-4.3-4-4.3c-2,0-4,1.7-4,4C142,16.4,144,18.1,146,18.1L146,18.1z"/>
	<polygon fill="#262626" points="4.6,34.8 2.3,34.8 2.3,27 0,27 0,24.7 6.9,24.7 6.9,27 4.6,27 	"/>
	<polygon fill="#262626" points="16.6,27 16.6,28.7 19.6,28.7 19.6,30.7 16.6,30.7 16.6,32.3 19.6,32.3 19.6,34.8 14,34.8 14,24.7 
		19.6,24.7 19.6,27 	"/>
	<polygon fill="#262626" points="29.9,32.3 32.9,32.3 32.9,34.8 27.6,34.8 27.6,24.7 29.9,24.7 	"/>
	<polygon fill="#262626" points="42.6,27 42.6,28.7 45.6,28.7 45.6,30.7 42.6,30.7 42.6,32.3 45.6,32.3 45.6,34.8 40.3,34.8 
		40.3,24.7 45.6,24.7 45.6,27 	"/>
	<polygon fill="#262626" points="57.6,30.7 60.2,24.7 62.9,24.7 58.6,34.8 56.6,34.8 52.5,24.7 55.2,24.7 	"/>
	<polygon fill="#262626" points="69.8,24.7 72.1,24.7 72.1,34.8 69.8,34.8 	"/>
	<path fill="#262626" d="M85.5,27.4c-0.3-0.3-1-0.7-1.7-0.7c-0.3,0-1,0.3-1,0.7c0,0.7,0.7,1,1,1l0.7,0.3c1.3,0.3,2.6,1,2.6,2.7
		c0,1-0.3,2-1.3,2.7c-0.7,0.7-1.7,0.7-2.6,0.7c-1.3,0-2.3-0.3-3.3-1l1-2c0.7,0.7,1.3,1,2.3,1c0.7,0,1.3-0.3,1.3-1c0-0.7-1-1-1.7-1
		c-1.7-0.7-2.6-1-2.6-3c0-2,1.3-3,3.3-3c1,0,2.3,0,3,0.7L85.5,27.4L85.5,27.4z"/>
	<polygon fill="#262626" points="94.4,24.7 96.8,24.7 96.8,34.8 94.4,34.8 	"/>
	<path fill="#262626" d="M115.1,29.4c0,3.3-2.3,5.6-5.6,5.6c-3,0-5.3-2.3-5.3-5.6c0-2.7,2.6-5,5.3-5
		C112.4,24.4,115.1,26.7,115.1,29.4L115.1,29.4z M106.8,29.4c0,2,1.3,3,2.6,3c1.7,0,3-1,3-3c0-1.3-1.3-2.3-3-2.3
		C108.1,27,106.8,28,106.8,29.4L106.8,29.4z"/>
	<polygon fill="#262626" points="122.4,24.7 124.8,24.7 129.4,30.7 129.4,30.7 129.4,24.7 132,24.7 132,34.8 129.4,34.8 124.8,28.7 
		124.8,28.7 124.8,34.8 122.4,34.8 	"/>
</g>
</svg>
