<?xml version="1.0" encoding="utf-8"?>
<!-- Generator: Adobe Illustrator 18.1.0, SVG Export Plug-In . SVG Version: 6.00 Build 0)  -->
<!DOCTYPE svg PUBLIC "-//W3C//DTD SVG 1.1//EN" "http://www.w3.org/Graphics/SVG/1.1/DTD/svg11.dtd">
<svg version="1.1" id="RAW_ICONS_-_SQUARE__x2F__ROUNDED__x2F__CIRCLE"
	 xmlns="http://www.w3.org/2000/svg" xmlns:xlink="http://www.w3.org/1999/xlink" x="0px" y="0px" viewBox="0 0 64 64"
	 enable-background="new 0 0 64 64" xml:space="preserve">
<rect x="5.4" y="7" fill="#FFFFFF" width="48.8" height="48.8"/>
<g>
	<path fill="#0A6C9B" d="M33.9,29.6L33.9,29.6C33.9,29.6,33.9,29.6,33.9,29.6L33.9,29.6z"/>
	<path fill="#0A6C9B" d="M0,0v64h64V0H0z M23.3,47.3h-6.9V26.7h6.9V47.3z M19.8,23.8L19.8,23.8c-2.3,0-3.8-1.6-3.8-3.6
		c0-2,1.5-3.6,3.9-3.6c2.3,0,3.8,1.5,3.8,3.6C23.7,22.3,22.2,23.8,19.8,23.8z M48,47.3h-6.9v-11c0-2.8-1-4.7-3.5-4.7
		c-1.9,0-3,1.3-3.5,2.5c-0.2,0.4-0.2,1.1-0.2,1.7v11.5h-6.9c0,0,0.1-18.7,0-20.6h6.9v2.9c0.9-1.4,2.5-3.4,6.2-3.4
		c4.5,0,7.9,2.9,7.9,9.3V47.3z"/>
</g>
</svg>
