<?xml version="1.0" encoding="utf-8"?>
<!-- Generator: Adobe Illustrator 18.1.0, SVG Export Plug-In . SVG Version: 6.00 Build 0)  -->
<!DOCTYPE svg PUBLIC "-//W3C//DTD SVG 1.1//EN" "http://www.w3.org/Graphics/SVG/1.1/DTD/svg11.dtd">
<svg version="1.1" id="Layer_1" xmlns="http://www.w3.org/2000/svg" xmlns:xlink="http://www.w3.org/1999/xlink" x="0px" y="0px"
	 viewBox="0 0 140 140" enable-background="new 0 0 140 140" xml:space="preserve">
<circle fill="#3AAD2A" cx="70" cy="70" r="64.3"/>
<path fill="#FFFFFF" d="M34.9,9.4C45.6,3.1,57.3,0,70,0c12.7,0,24.4,3.1,35.1,9.4s19.2,14.8,25.5,25.5c6.3,10.7,9.4,22.4,9.4,35.1
	s-3.1,24.4-9.4,35.1c-6.3,10.7-14.8,19.2-25.5,25.5C94.4,136.9,82.7,140,70,140c-12.7,0-24.4-3.1-35.1-9.4
	c-10.7-6.3-19.2-14.8-25.5-25.5C3.1,94.4,0,82.7,0,70s3.1-24.4,9.4-35.1C15.7,24.2,24.2,15.7,34.9,9.4z M111.7,28.3
	C100.2,16.7,86.3,10.9,70,10.9c-16.3,0-30.2,5.8-41.7,17.3C16.7,39.8,10.9,53.7,10.9,70c0,16.4,5.8,30.3,17.3,41.8
	c11.6,11.5,25.5,17.3,41.7,17.3c16.3,0,30.2-5.8,41.7-17.3c11.6-11.5,17.3-25.4,17.3-41.8C129.1,53.7,123.3,39.8,111.7,28.3z
	 M93.1,70.2L58.3,93.8V46.7L93.1,70.2z"/>
</svg>
