<?xml version="1.0" encoding="utf-8"?>
<!-- Generator: Adobe Illustrator 18.1.0, SVG Export Plug-In . SVG Version: 6.00 Build 0)  -->
<!DOCTYPE svg PUBLIC "-//W3C//DTD SVG 1.1//EN" "http://www.w3.org/Graphics/SVG/1.1/DTD/svg11.dtd">
<svg version="1.1" id="RAW_ICONS_-_SQUARE__x2F__ROUNDED__x2F__CIRCLE"
	 xmlns="http://www.w3.org/2000/svg" xmlns:xlink="http://www.w3.org/1999/xlink" x="0px" y="0px" viewBox="0 0 64 64"
	 enable-background="new 0 0 64 64" xml:space="preserve">
<rect x="9.1" y="7" fill="#FFFFFF" width="48.8" height="48.8"/>
<path fill="#F58020" d="M0,0v64h64V0H0z M20.3,48c-2.3,0-4.2-1.9-4.2-4.2c0-2.3,1.9-4.2,4.2-4.2c2.3,0,4.2,1.9,4.2,4.2
	C24.6,46.1,22.7,48,20.3,48z M31,48c0-4-1.6-7.8-4.4-10.6C23.8,34.6,20,33,16.1,33v-6.1c11.6,0,21,9.5,21,21.1H31z M41.8,48
	c0-14.3-11.5-25.9-25.7-25.9V16c17.6,0,31.9,14.4,31.9,32H41.8z"/>
</svg>
