<?xml version="1.0" encoding="utf-8"?>
<!-- Generator: Adobe Illustrator 18.1.0, SVG Export Plug-In . SVG Version: 6.00 Build 0)  -->
<!DOCTYPE svg PUBLIC "-//W3C//DTD SVG 1.1//EN" "http://www.w3.org/Graphics/SVG/1.1/DTD/svg11.dtd">
<svg version="1.1" id="icons" xmlns="http://www.w3.org/2000/svg" xmlns:xlink="http://www.w3.org/1999/xlink" x="0px" y="0px"
	 viewBox="0 0 40 40" enable-background="new 0 0 40 40" xml:space="preserve">
<path fill="#3AAD2A" d="M29.8,24.9l10,10c0.1,0.2,0.2,0.3,0.2,0.6c0,0.2-0.1,0.4-0.2,0.6l-3.7,3.7C36,39.9,35.8,40,35.6,40
	s-0.4-0.1-0.6-0.2l-10-10c-2.7,1.8-5.6,2.6-8.7,2.6c-4.4,0-8.2-1.6-11.4-4.8C1.6,24.4,0,20.7,0,16.2S1.6,8,4.8,4.8
	C7.9,1.6,11.7,0,16.2,0s8.2,1.6,11.3,4.8c3.1,3.1,4.8,7,4.8,11.4C32.3,19.3,31.4,22.2,29.8,24.9z M8.3,24c2.1,2.1,4.8,3.2,7.8,3.2
	s5.7-1.1,7.8-3.2s3.2-4.8,3.2-7.8s-1.1-5.7-3.2-7.8s-4.8-3.2-7.8-3.2s-5.7,1.1-7.8,3.2s-3.2,4.8-3.2,7.8S6.2,21.8,8.3,24z"/>
</svg>
