<?xml version="1.0" encoding="utf-8"?>
<!-- Generator: Adobe Illustrator 18.1.0, SVG Export Plug-In . SVG Version: 6.00 Build 0)  -->
<!DOCTYPE svg PUBLIC "-//W3C//DTD SVG 1.1//EN" "http://www.w3.org/Graphics/SVG/1.1/DTD/svg11.dtd">
<svg version="1.1" id="RAW_ICONS_-_SQUARE__x2F__ROUNDED__x2F__CIRCLE"
	 xmlns="http://www.w3.org/2000/svg" xmlns:xlink="http://www.w3.org/1999/xlink" x="0px" y="0px" viewBox="0 0 64 64"
	 enable-background="new 0 0 64 64" xml:space="preserve">
<rect x="9.1" y="7" fill="#FFFFFF" width="48.8" height="48.8"/>
<g>
	<polygon fill="#EE3537" points="20.5,34.9 22.4,34.9 22.4,44.3 24.2,44.3 24.2,34.9 26.1,34.9 26.1,33.3 20.5,33.3 	"/>
	<path fill="#EE3537" d="M31.7,27.1c0.2,0,0.4-0.1,0.6-0.2c0.1-0.1,0.2-0.3,0.2-0.6v-4.9c0-0.2-0.1-0.4-0.2-0.5
		c-0.1-0.1-0.3-0.2-0.6-0.2c-0.2,0-0.4,0.1-0.5,0.2C31,21.1,31,21.3,31,21.5v4.9c0,0.2,0.1,0.4,0.2,0.6
		C31.3,27.1,31.5,27.1,31.7,27.1z"/>
	<path fill="#EE3537" d="M35.7,36.1c-0.3,0-0.5,0.1-0.7,0.2c-0.2,0.1-0.5,0.3-0.7,0.6v-3.5h-1.6v11h1.6v-0.6
		c0.2,0.2,0.4,0.4,0.7,0.5c0.2,0.1,0.5,0.2,0.8,0.2c0.5,0,0.8-0.1,1.1-0.5c0.3-0.3,0.4-0.7,0.4-1.3v-4.5c0-0.7-0.1-1.2-0.4-1.5
		C36.6,36.3,36.3,36.1,35.7,36.1z M35.7,42.4c0,0.3,0,0.4-0.1,0.6c-0.1,0.1-0.2,0.2-0.4,0.2c-0.1,0-0.3,0-0.4-0.1
		c-0.1-0.1-0.3-0.2-0.4-0.3v-5c0.1-0.1,0.2-0.2,0.3-0.2c0.1-0.1,0.2-0.1,0.3-0.1c0.2,0,0.4,0.1,0.5,0.2c0.1,0.1,0.2,0.3,0.2,0.6
		V42.4z"/>
	<path fill="#EE3537" d="M29.8,42.4c-0.2,0.2-0.3,0.3-0.5,0.4C29.1,42.9,29,43,28.9,43c-0.2,0-0.3,0-0.3-0.1
		c-0.1-0.1-0.1-0.2-0.1-0.4v-6.2h-1.6V43c0,0.5,0.1,0.8,0.3,1.1c0.2,0.2,0.5,0.4,0.8,0.4c0.3,0,0.6-0.1,0.9-0.3
		c0.3-0.2,0.6-0.4,0.9-0.8v0.9h1.6v-8.1h-1.6V42.4z"/>
	<path fill="#EE3537" d="M0,0v64h64V0H0z M35.9,19.5h1.8v6.8c0,0.2,0,0.4,0.1,0.5c0.1,0.1,0.2,0.1,0.4,0.1c0.1,0,0.3-0.1,0.5-0.2
		c0.2-0.1,0.4-0.3,0.6-0.5v-6.8h1.8v8.9h-1.8v-1c-0.3,0.4-0.7,0.6-1,0.8c-0.4,0.2-0.7,0.3-1.1,0.3c-0.4,0-0.7-0.1-1-0.4
		c-0.2-0.3-0.3-0.7-0.3-1.2V19.5z M29.1,21.6c0-0.7,0.2-1.2,0.7-1.6c0.5-0.4,1.2-0.6,2-0.6c0.8,0,1.4,0.2,1.9,0.6
		c0.5,0.4,0.7,1,0.7,1.7v4.6c0,0.8-0.2,1.4-0.7,1.8c-0.5,0.4-1.1,0.7-2,0.7c-0.8,0-1.4-0.2-1.9-0.7c-0.5-0.4-0.7-1.1-0.7-1.8V21.6z
		 M24.1,16.4l1.3,4.8h0.1l1.3-4.8h2.1l-2.4,7.1v5h-2.1v-4.8l-2.4-7.3H24.1z M48,41.8c0,3.2-2.6,5.8-5.8,5.8H21.8
		c-3.2,0-5.8-2.6-5.8-5.8v-4.7c0-3.2,2.6-5.8,5.8-5.8h20.3c3.2,0,5.8,2.6,5.8,5.8V41.8z"/>
	<path fill="#EE3537" d="M40.6,36c-0.7,0-1.3,0.2-1.8,0.7s-0.7,1-0.7,1.7V42c0,0.8,0.2,1.4,0.6,1.8c0.4,0.4,1,0.7,1.7,0.7
		c0.8,0,1.4-0.2,1.8-0.6c0.4-0.4,0.6-1,0.6-1.9v-0.4h-1.7V42c0,0.5-0.1,0.8-0.2,0.9c-0.1,0.1-0.3,0.2-0.6,0.2
		c-0.3,0-0.4-0.1-0.5-0.2c-0.1-0.2-0.2-0.5-0.2-0.9v-1.5h3.1v-2.1c0-0.8-0.2-1.4-0.6-1.8C41.9,36.2,41.4,36,40.6,36z M41.3,39.2
		h-1.4v-0.8c0-0.3,0.1-0.6,0.2-0.7c0.1-0.2,0.3-0.2,0.6-0.2c0.2,0,0.4,0.1,0.5,0.2c0.1,0.1,0.2,0.4,0.2,0.7V39.2z"/>
</g>
</svg>
